PathFileType	4	(X/Y/Z)	anato.trc
DataRate	CameraRate	NumFrames	NumMarkers	Units	OrigDataRate	OrigDataStartFrame	OrigNumFrames
100.0	100.0	9	17	mm	100.0	541	618
Frame#	Time	STER			XIPH			T10			T1			CLAV_SC			CLAV_AC			SCAP_AA			SCAP_CP			SCAP_TS			SCAP_IA			DELT			ARMl			EPICm			EPICl			LARM_elb			STYLr			STYLu		
		X1	Y1	Z1	X2	Y2	Z2	X3	Y3	Z3	X4	Y4	Z4	X5	Y5	Z5	X6	Y6	Z6	X7	Y7	Z7	X8	Y8	Z8	X9	Y9	Z9	X10	Y10	Z10	X11	Y11	Z11	X12	Y12	Z12	X13	Y13	Z13	X14	Y14	Z14	X15	Y15	Z15	X16	Y16	Z16	X17	Y17	Z17

541	5.4	388.0050964355469	47.716007232666016	1437.66845703125	387.333251953125	102.28907775878906	1273.4847412109375	372.6770324707031	-129.72813415527344	1239.6485595703125	366.80279541015625	-109.15853881835938	1472.5263671875	423.81207275390625	39.594337463378906	1442.62744140625	572.4263916015625	-37.16976547241211	1460.189697265625	575.0119018554688	-83.09967803955078	1443.4921875	519.4405517578125	-88.31814575195312	1474.1455078125	500.4494323730469	-143.1171417236328	1420.474609375	479.9153137207031	-153.34573364257812	1280.98779296875	648.7945556640625	-64.7156753540039	1315.6094970703125	665.6319580078125	-76.60254669189453	1269.750732421875	667.7005615234375	-19.007278442382812	1111.333251953125	730.9745483398438	-83.66364288330078	1166.9146728515625	682.1636962890625	-64.17591857910156	1103.8203125	930.6967163085938	18.677350997924805	998.6315307617188	863.31689453125	20.417335510253906	949.8230590820312
542	5.41	388.0516357421875	47.687774658203125	1437.724365234375	387.3709411621094	102.28240203857422	1273.5189208984375	372.6826171875	-129.76390075683594	1239.646484375	366.7917175292969	-109.22801208496094	1472.51123046875	423.7696228027344	39.53300094604492	1442.4676513671875	572.4533081054688	-37.230438232421875	1460.19189453125	575.1048583984375	-83.1431884765625	1443.4539794921875	519.5149536132812	-88.3704605102539	1474.1219482421875	500.5708923339844	-143.1642608642578	1420.3544921875	479.84222412109375	-153.39971923828125	1281.0263671875	648.830078125	-64.79324340820312	1315.5692138671875	665.6422729492188	-76.67011260986328	1269.7265625	667.7439575195312	-19.00577735900879	1111.306396484375	731.0333251953125	-83.73188781738281	1166.96630859375	682.1365356445312	-64.2386703491211	1103.7802734375	930.677001953125	18.599992752075195	998.5445556640625	863.3021850585938	20.21016502380371	949.7675170898438
543	5.42	388.0568542480469	47.63043975830078	1437.739990234375	387.3935852050781	102.2645492553711	1273.5194091796875	372.70733642578125	-129.78846740722656	1239.635009765625	366.8169860839844	-109.27593994140625	1472.50048828125	423.7737731933594	39.46311569213867	1442.45849609375	572.4911499023438	-37.28382110595703	1460.1756591796875	575.0829467773438	-83.20655822753906	1443.4224853515625	519.5178833007812	-88.43360900878906	1474.089111328125	500.6195983886719	-143.19395446777344	1420.2196044921875	479.8901672363281	-153.4433135986328	1280.974609375	648.8320922851562	-64.83573913574219	1315.5325927734375	665.6533203125	-76.73609161376953	1269.7054443359375	667.749755859375	-19.076801300048828	1111.2689208984375	730.9193115234375	-83.80207824707031	1166.8636474609375	682.1224365234375	-64.29048919677734	1103.7454833984375	930.625	18.50278091430664	998.4547119140625	863.3189086914062	20.10728645324707	949.7095947265625
544	5.43	388.0821228027344	47.594078063964844	1437.7669677734375	387.3872375488281	102.20989990234375	1273.5244140625	372.7290954589844	-129.81532287597656	1239.6304931640625	366.8371276855469	-109.31564331054688	1472.4971923828125	423.8396911621094	39.434356689453125	1442.600830078125	572.47314453125	-37.33725357055664	1460.1597900390625	575.166015625	-83.2538070678711	1443.4232177734375	519.5282592773438	-88.48298645019531	1474.071044921875	500.6397399902344	-143.25970458984375	1420.29931640625	479.810302734375	-153.48313903808594	1280.9793701171875	649.6351928710938	-64.84337615966797	1315.7276611328125	665.6510009765625	-76.7821273803711	1269.6708984375	667.7095947265625	-19.149507522583008	1111.29931640625	730.9331665039062	-83.86959075927734	1166.8477783203125	682.1349487304688	-64.36414337158203	1103.7376708984375	930.6467895507812	18.421615600585938	998.3965454101562	863.3165283203125	19.99393081665039	949.7021484375
545	5.44	388.0643310546875	47.51411437988281	1437.7611083984375	387.38299560546875	102.16111755371094	1273.5206298828125	372.7268981933594	-129.85177612304688	1239.611328125	366.84722900390625	-109.3430404663086	1472.512939453125	423.80279541015625	39.394264221191406	1442.4580078125	572.5098876953125	-37.3960075378418	1460.152099609375	575.12548828125	-83.31707763671875	1443.39697265625	519.5272216796875	-88.54158782958984	1474.0567626953125	500.65740966796875	-143.2968292236328	1420.286376953125	479.821044921875	-153.52471923828125	1280.9847412109375	648.84033203125	-64.95909118652344	1315.4986572265625	665.6616821289062	-76.84014129638672	1269.646484375	667.6976318359375	-19.231422424316406	1111.248046875	730.9788818359375	-83.93630981445312	1166.7862548828125	682.1198120117188	-64.45520782470703	1103.7005615234375	930.6771850585938	18.411725997924805	998.3857421875	863.2716674804688	19.897748947143555	949.6051025390625
546	5.45	388.158935546875	47.46435546875	1437.7596435546875	387.4474182128906	102.13257598876953	1273.55224609375	372.76531982421875	-129.90452575683594	1239.6119384765625	366.84521484375	-109.38540649414062	1472.522705078125	424.02484130859375	39.611961364746094	1442.6864013671875	572.5076293945312	-37.4490852355957	1460.116943359375	575.16015625	-83.36274719238281	1443.398681640625	519.5390625	-88.59565734863281	1474.065673828125	500.616943359375	-143.341796875	1420.2718505859375	479.8060607910156	-153.56861877441406	1280.9464111328125	648.8550415039062	-64.9998550415039	1315.4903564453125	665.6627197265625	-76.90985107421875	1269.639404296875	667.7122192382812	-19.24102783203125	1111.21630859375	730.9589233398438	-83.97742462158203	1166.8037109375	682.1095581054688	-64.50995635986328	1103.6988525390625	930.6431274414062	18.35619354248047	998.3431396484375	863.2835693359375	19.824867248535156	949.6018676757812
547	5.46	388.0980224609375	47.46856689453125	1437.7586669921875	387.42822265625	102.0810546875	1273.5498046875	372.7651672363281	-129.94564819335938	1239.60888671875	366.853515625	-109.41886138916016	1472.532470703125	423.8865051269531	39.34950637817383	1442.6065673828125	572.5133666992188	-37.504695892333984	1460.1024169921875	575.1812744140625	-83.40934753417969	1443.4046630859375	519.5587158203125	-88.62205505371094	1474.058837890625	500.5771484375	-143.40203857421875	1420.3284912109375	479.8555603027344	-153.6007537841797	1280.98046875	648.8395385742188	-65.06334686279297	1315.478759765625	665.6446533203125	-76.950927734375	1269.6416015625	667.64599609375	-19.354671478271484	1111.2149658203125	730.927978515625	-84.06083679199219	1166.7398681640625	682.0938110351562	-64.55889129638672	1103.680908203125	930.54541015625	18.304086685180664	998.3289794921875	863.2353515625	19.751178741455078	949.5995483398438
548	5.47	387.802490234375	47.468807220458984	1437.7291259765625	387.42474365234375	102.026611328125	1273.5582275390625	372.77978515625	-129.97262573242188	1239.6146240234375	366.8515319824219	-109.46018981933594	1472.5609130859375	423.85601806640625	39.33081817626953	1442.5908203125	572.5130615234375	-37.5449104309082	1460.108642578125	575.1100463867188	-83.46281433105469	1443.3887939453125	519.512939453125	-88.6663818359375	1474.0870361328125	500.63250732421875	-143.43321228027344	1420.3060302734375	479.7976989746094	-153.65884399414062	1280.983642578125	649.6351318359375	-65.06063842773438	1315.699951171875	665.63525390625	-77.00776672363281	1269.6337890625	667.6823120117188	-19.36787223815918	1111.1962890625	731.0349731445312	-84.08753204345703	1166.754150390625	682.0586547851562	-64.6266860961914	1103.6864013671875	930.5421142578125	18.234167098999023	998.3016357421875	863.216552734375	19.772220611572266	949.561767578125
549	5.48	387.8200988769531	47.42228317260742	1437.779296875	387.46673583984375	101.99657440185547	1273.569091796875	372.79827880859375	-130.04025268554688	1239.63427734375	366.83306884765625	-109.47956085205078	1472.5430908203125	423.9552001953125	39.47178268432617	1442.6412353515625	572.5288696289062	-37.60132598876953	1460.173095703125	575.0780029296875	-83.50390625	1443.4114990234375	519.5357666015625	-88.70834350585938	1474.0865478515625	500.5487976074219	-143.4818115234375	1420.37109375	479.96575927734375	-153.7101287841797	1280.955078125	649.621337890625	-65.09883880615234	1315.7064208984375	665.6317749023438	-77.05827331542969	1269.6441650390625	667.6434326171875	-19.42705535888672	1111.263671875	730.9454956054688	-84.17122650146484	1166.77783203125	682.0426635742188	-64.67601013183594	1103.6888427734375	930.4419555664062	18.21742057800293	998.298095703125	863.1795043945312	19.71871566772461	949.5648803710938
